<?xml version="1.0" encoding="utf-8"?>

<!DOCTYPE svg PUBLIC "-//W3C//DTD SVG 1.1//EN" "http://www.w3.org/Graphics/SVG/1.1/DTD/svg11.dtd">
<!-- Uploaded to: SVG Repo, www.svgrepo.com, Generator: SVG Repo Mixer Tools -->
<svg height="800px" width="800px" version="1.1" id="_x32_" xmlns="http://www.w3.org/2000/svg" xmlns:xlink="http://www.w3.org/1999/xlink" 
	 viewBox="0 0 512 512"  xml:space="preserve">
<style type="text/css">
	.st0{fill:#000000;}
</style>
<g>
	<path class="st0" d="M483.627,43.937l-22.814-31.396L449.986,45.05l8.549,0.566c0,0,3.986,21.646-0.566,47.871
		c-4.563,26.242-35.354,18.845-35.354,5.162c0-13.692,0-57.61,0-57.61h9.13L411.221,0l-20.533,41.038h9.129c0,0,0,43.918,0,57.61
		c0,13.682-30.79,21.08-35.354-5.162c-4.552-26.224-0.566-47.871-0.566-47.871l8.55-0.566l-10.828-32.508l-22.813,31.396
		l9.129,1.112c0,0-5.143,47.304,0.567,63.28c5.699,15.967,14.83,22.778,31.366,26.8c13.478,3.24,15.396,10.832,15.396,21.09h5.923
		v126.365c-7.919,3.934-13.667,12.17-15.014,22.057c-12.907,5.466-36.886,14.98-47.582,14.98
		c-9.506-6.578-15.967-17.04-20.954-28.537l5.587-10.862l18.163,17.743l6.534-23.393c0,0,17.435,6.451,31.239,16.142
		c0-50.017-39.228-87.922-39.228-87.922l-44.078,28.156c2.869-4.08,5.514-8.326,7.646-12.883
		c18.563-17.997,34.012-44.835,36.076-64.452c-13.326-4.997-22.476,3.875-22.476,3.875c0-6.266-3.07-16.084-3.07-16.084
		c-1.082-3.796-2.44-15.918-10.013-28.468c4.284-9.33,8.69-23.579,4.758-38.228c-6.9-25.727-23.086-31.191-28.234-33.251
		c-5.154-2.068-10.151,3.865-5.129,7.632c8.266,6.197,10.418,23.54-1.22,38.355c-11.574-5.056-26.633-8.335-46.362-8.335
		c-19.729,0-34.788,3.279-46.362,8.335c-11.639-14.815-9.486-32.158-1.22-38.355c5.022-3.768,0.025-9.701-5.129-7.632
		c-5.148,2.06-21.334,7.524-28.233,33.251c-3.933,14.649,0.473,28.898,4.757,38.228c-7.573,12.55-8.93,24.672-10.013,28.468
		c0,0-3.07,9.818-3.07,16.084c0,0-9.149-8.872-22.476-3.875c1.899,18.045,15.093,42.298,31.645,60.089
		c2.376,5.943,5.592,11.428,9.184,16.62l-51.876-33.134c0,0-44.972,43.45-44.972,100.786c15.824-11.106,35.812-18.504,35.812-18.504
		l7.491,26.819l20.822-20.338l2.001,3.894c-5.081,15.351-8.389,33.368-7.876,53.931c1.664,66.618-13.326,98.268-13.326,98.268
		s34.978-1.669,39.974-29.981c4.997,11.663,19.982,8.335,11.658-8.325c-5.196-10.403-4.548-48.104,6.002-74.934
		c6.895,25.365,14.79,54.351,16.654,59.933c1.839,5.514,2.659,29.288,3.03,50.339c-2.552,3.708-5.416,7.184-8.594,10.364
		c-13.35,13.332-31.703,21.559-52.062,21.568c-20.358-0.009-38.71-8.237-52.061-21.568c-13.337-13.35-21.56-31.708-21.564-52.056
		c0.004-12.122,2.996-23.501,8.173-33.573l13.81,9.945l16.66-61.621l-58.298,31.64l14.776,10.637
		c-7.007,12.776-11.111,27.396-11.106,42.972c0.004,49.48,40.11,89.61,89.61,89.61c23.565,0,44.933-9.163,60.924-24.027
		c0.035,5.64,0.035,9.661,0.035,10.715c0,4.997-16.659,23.325-11.662,28.322s53.301,0,53.301,0V417.06h5.655h5.656v84.946
		c0,0,48.304,4.997,53.301,0c4.997-4.997-11.662-23.325-11.662-28.322c0-4.997,0-74.953,3.333-84.946
		c1.903-5.699,10.1-35.817,17.093-61.562c9.16,12.96,23.882,32.42,29.723,32.42c7.7,0,56.038-23.227,67.481-28.781
		c1.913,1.845,4.022,3.445,6.358,4.607V512h20.056V335.842c9.549-4.264,16.318-14.649,16.318-26.838
		c0-12.19-6.769-22.574-16.318-26.838V156.219h5.923c0-10.258,1.928-17.85,15.41-21.09c16.523-4.022,25.652-10.833,31.352-26.8
		c5.709-15.976,0.567-63.28,0.567-63.28L483.627,43.937z M191.6,190.534c-11.662-4.997-11.658-21.656-11.658-21.656l38.311,13.332
		C218.253,182.209,203.263,195.53,191.6,190.534z M266.561,190.534c-11.662,4.997-26.652-8.325-26.652-8.325l38.311-13.332
		C278.22,168.877,278.224,185.536,266.561,190.534z"/>
</g>
</svg>